<svg width="121" height="129" viewBox="0 0 121 129" fill="none" xmlns="http://www.w3.org/2000/svg">
<g clip-path="url(#clip0_3869_1332)">
<path d="M120.5 69C120.504 82.3375 116.064 95.2961 107.881 105.829C99.6989 116.361 88.2402 123.867 75.3157 127.16C62.3912 130.454 48.7378 129.347 36.5126 124.015C24.2873 118.683 14.1872 109.429 7.808 97.716C3.43667 89.6897 0.956682 80.7709 0.557315 71.6402C0.157949 62.5095 1.84976 53.4082 5.50362 45.0309C9.15749 36.6537 14.6768 29.2218 21.6405 23.3026C28.6041 17.3833 36.8279 13.1331 45.6843 10.8763C54.5408 8.61956 63.7957 8.41583 72.7429 10.2807C81.69 12.1456 90.0929 16.0298 97.3103 21.6369C104.528 27.244 110.369 34.4258 114.388 42.6341C118.407 50.8425 120.497 59.8605 120.5 69Z" fill="#F0F0F0"/>
<path d="M113.192 97.716C108.033 107.188 100.417 115.094 91.1439 120.603C81.8712 126.111 71.2851 129.018 60.4996 129.018C49.7141 129.018 39.128 126.111 29.8553 120.603C20.5827 115.094 12.9663 107.188 7.80762 97.716C20.5036 88.8 39.4036 83.124 60.4996 83.124C81.5956 83.124 100.496 88.8 113.192 97.716Z" fill="#DFDFDF"/>
<path d="M81.6501 91.056C81.6501 97.458 71.9661 102.654 60.0081 102.654C48.0501 102.654 38.3721 97.458 38.3721 91.056C38.3721 87.576 41.2221 85.248 45.7461 83.856V62.322H74.3001V83.844C78.7941 85.248 81.6501 87.6 81.6501 91.056Z" fill="white"/>
<path opacity="0.09" d="M74.3004 62.322V82.5C70.7604 85.74 66.5004 87.63 61.9404 87.63C55.5804 87.63 49.8444 83.976 45.7764 78.096V62.322H74.3004Z" fill="black"/>
<path d="M86.2996 49.2C86.2722 50.4634 86.166 51.7238 85.9816 52.974C85.3816 57.468 84.3976 61.098 81.0136 61.068C77.8996 72.852 69.6856 81.27 60.0136 81.27C50.3416 81.27 42.1516 72.87 39.0436 61.068C35.6596 61.098 34.6816 57.468 34.0756 52.974C33.7501 51.112 33.6855 49.2138 33.8836 47.334C34.1236 45.852 34.7356 44.724 35.9596 44.13C36.4013 43.9216 36.8731 43.7839 37.3576 43.722C37.5196 43.722 37.6816 43.686 37.8376 43.68C37.9096 42.24 38.0056 40.842 38.1556 39.48C38.3274 37.7259 38.6201 35.9858 39.0316 34.272C39.3245 33.0238 39.7137 31.8001 40.1956 30.612C40.9819 28.6409 42.1411 26.84 43.6096 25.308C46.3816 22.788 51.0616 20.262 58.5556 19.974C59.0356 19.974 59.5216 19.974 60.0136 19.974C73.0516 19.974 78.5056 25.272 80.7616 33.336C80.8036 33.486 80.8456 33.63 80.8816 33.78C81.0256 34.38 81.1576 34.932 81.2776 35.52C81.6343 37.3033 81.8827 39.1066 82.0216 40.92C82.0936 41.814 82.1476 42.72 82.1956 43.662C82.3516 43.662 82.5076 43.662 82.6756 43.704C83.2459 43.7487 83.7978 43.9261 84.2874 44.222C84.7771 44.5178 85.1908 44.9239 85.4956 45.408C86.102 46.5759 86.3799 47.8865 86.2996 49.2Z" fill="white"/>
<path opacity="0.07" d="M85.9524 52.998C85.3524 57.492 84.3684 61.122 80.9844 61.092C77.8704 72.876 69.6564 81.294 59.9844 81.294C58.9493 81.2959 57.9165 81.1975 56.9004 81C70.3404 78.648 80.3304 62.892 79.6584 44.208C79.4184 37.392 78.5604 31.008 76.6944 25.662C78.7461 27.9832 80.1911 30.7763 80.9004 33.792C81.0444 34.392 81.1764 34.944 81.2964 35.532C81.8101 38.2286 82.117 40.9606 82.2144 43.704C82.3704 43.704 82.5264 43.704 82.6944 43.746C83.2647 43.7907 83.8166 43.9681 84.3062 44.2639C84.7958 44.5598 85.2096 44.9659 85.5144 45.45C86.5164 47.142 86.3724 49.896 85.9524 52.998Z" fill="black"/>
<path opacity="0.07" d="M80.7564 33.348C80.5164 32.922 80.2644 32.502 80.0244 32.076C78.8604 30.03 77.0244 28.242 74.7504 27.654C72.3504 27.054 69.8004 27.81 67.4364 28.608C65.08 29.3784 62.6133 29.7575 60.1344 29.73C57.6555 29.7562 55.189 29.3772 52.8324 28.608C50.4684 27.81 47.9424 27.03 45.5244 27.654C43.2384 28.254 41.4204 30.054 40.2564 32.076C39.8364 32.814 39.3984 33.552 39.0264 34.308C39.3193 33.0597 39.7084 31.8361 40.1904 30.648C40.9767 28.6769 42.1359 26.876 43.6044 25.344C46.3764 22.824 51.0564 20.298 58.5504 20.01C59.0304 20.01 59.5164 20.01 60.0084 20.01C73.0464 19.986 78.5004 25.284 80.7564 33.348Z" fill="black"/>
<path d="M85.5082 42.12C84.6022 44.19 83.4742 46.218 82.8322 48.378C82.7911 48.5344 82.6993 48.6729 82.5712 48.7717C82.4431 48.8705 82.2859 48.9241 82.1242 48.9241C81.9624 48.9241 81.8052 48.8705 81.6771 48.7717C81.549 48.6729 81.4573 48.5344 81.4162 48.378C79.4902 41.4 83.3362 27 73.7002 24.534C71.4562 23.934 69.1042 24.678 66.9082 25.422C62.4901 26.8062 57.7543 26.8062 53.3362 25.422C51.1402 24.678 48.7942 23.958 46.5502 24.534C42.4462 25.59 40.4542 29.682 39.8122 33.534C39.4882 35.5184 39.4518 37.5392 39.7042 39.534C40.0522 42.378 39.4162 45.468 38.7202 48.234C38.6643 48.4296 38.5462 48.6016 38.3838 48.7241C38.2215 48.8466 38.0236 48.9129 37.8202 48.9129C37.6168 48.9129 37.4189 48.8466 37.2565 48.7241C37.0941 48.6016 36.976 48.4296 36.9202 48.234C36.7844 47.7679 36.7138 47.2854 36.7102 46.8C36.7589 45.1934 36.2852 43.6144 35.3602 42.3C35.2833 42.1885 35.1991 42.0823 35.1082 41.982C34.4302 41.202 33.5182 40.638 33.1042 39.582C32.8167 38.7773 32.7852 37.9033 33.0142 37.08C33.3322 35.772 34.0222 34.632 34.2862 33.306C34.8322 30.534 33.5302 27.768 32.3542 25.194C31.1782 22.62 30.0742 19.71 31.0102 17.04C31.7182 15.018 33.4522 13.56 35.1142 12.24L39.3502 8.78998C41.6002 6.96598 43.4002 4.79998 46.0642 3.62998C48.3954 2.63672 50.8984 2.10881 53.4322 2.07598C54.6666 2.0638 55.9007 2.12391 57.1282 2.25598C58.1482 2.36398 59.2942 2.71798 60.3082 2.45398C62.4802 1.88398 64.2562 1.18798 66.5782 1.39798C68.7583 1.58901 70.8461 2.36649 72.6202 3.64798C74.6842 5.17198 76.2202 7.30198 78.1822 8.94598C78.8122 9.46798 79.4782 9.94198 80.1562 10.404C81.7162 11.472 83.3242 12.468 84.5782 13.86C86.4802 15.966 87.3922 18.786 87.9082 21.576C89.1786 28.51 88.3427 35.6655 85.5082 42.12Z" fill="#7C7C7C"/>
<path d="M80.1562 10.404C77.1853 10.1218 74.2505 9.5409 71.3962 8.66998C65.3362 6.81598 57.8182 2.96998 51.8842 7.31398C49.1002 9.36598 47.6302 12.996 44.3482 14.286C41.8882 15.252 38.6002 14.784 37.8742 18.324C37.7046 19.2699 37.7622 20.2426 38.0422 21.162C39.5662 26.694 37.8862 30.888 35.6422 36.162C34.8399 37.9996 34.6526 40.0473 35.1082 42C34.4302 41.22 33.5182 40.656 33.1042 39.6C32.8167 38.7953 32.7852 37.9213 33.0142 37.098C33.3322 35.79 34.0222 34.65 34.2862 33.324C34.8322 30.552 33.5302 27.786 32.3542 25.212C31.1782 22.638 30.0742 19.728 31.0102 17.058C31.7182 15.036 33.4522 13.578 35.1142 12.258L39.3502 8.80798C41.6002 6.96598 43.4002 4.79998 46.0642 3.62998C48.3954 2.63672 50.8984 2.10881 53.4322 2.07598C54.6666 2.0638 55.9007 2.12391 57.1282 2.25598C58.1482 2.36398 59.2942 2.71798 60.3082 2.45398C62.4802 1.88398 64.2562 1.18798 66.5782 1.39798C68.7583 1.58901 70.8461 2.36649 72.6202 3.64798C74.6842 5.17198 76.2202 7.30198 78.1822 8.94598C78.8122 9.46798 79.4782 9.94198 80.1562 10.404Z" fill="#949494"/>
</g>
<defs>
<clipPath id="clip0_3869_1332">
<rect width="120" height="129" fill="white" transform="translate(0.5)"/>
</clipPath>
</defs>
</svg>
