<svg width="20" height="20" viewBox="0 0 20 20" fill="none" xmlns="http://www.w3.org/2000/svg">
<g clip-path="url(#clip0_3869_4893)">
<path d="M18.3327 9.23333V10C18.3317 11.797 17.7498 13.5456 16.6738 14.9849C15.5978 16.4241 14.0854 17.4771 12.3621 17.9866C10.6389 18.4961 8.79707 18.4349 7.11141 17.8122C5.42575 17.1894 3.98656 16.0384 3.00848 14.5309C2.0304 13.0234 1.56584 11.2401 1.68408 9.44693C1.80232 7.6538 2.49702 5.94694 3.66458 4.58089C4.83214 3.21485 6.41 2.26282 8.16284 1.86679C9.91568 1.47076 11.7496 1.65195 13.391 2.38333M18.3327 3.33333L9.99935 11.675L7.49935 9.175" stroke="white" stroke-width="1.5" stroke-linecap="round" stroke-linejoin="round"/>
</g>
<defs>
<clipPath id="clip0_3869_4893">
<rect width="20" height="20" fill="white"/>
</clipPath>
</defs>
</svg>
