<svg width="120" height="18" viewBox="0 0 120 18" fill="none" xmlns="http://www.w3.org/2000/svg">
<path d="M13.6334 17.5328L9.84632 11.1016C11.6641 10.6711 13.5324 9.07596 13.5324 6.08822C13.5324 2.94855 11.3864 0.644444 7.87705 0.644444H0V17.5328H3.58507V11.532H6.21075L9.51811 17.5328H13.6334ZM7.34687 8.367H3.58507V3.80943H7.34687C8.78594 3.80943 9.87156 4.6703 9.87156 6.08822C9.87156 7.50613 8.78594 8.367 7.34687 8.367Z" fill="white"/>
<path d="M17.738 3.98667C18.7983 3.98667 19.6567 3.12579 19.6567 2.06236C19.6567 0.998922 18.7983 0.163366 17.738 0.163366C16.7028 0.163366 15.8192 0.998922 15.8192 2.06236C15.8192 3.12579 16.7028 3.98667 17.738 3.98667ZM19.3538 17.5328V5.3033H16.1474V17.5328H19.3538Z" fill="white"/>
<path d="M28.2137 17.8366C30.7131 17.8366 32.2279 16.7479 33.0359 15.6085L30.9404 13.6589C30.3597 14.4691 29.476 14.9755 28.3652 14.9755C26.4211 14.9755 25.0578 13.5323 25.0578 11.4054C25.0578 9.27852 26.4211 7.86061 28.3652 7.86061C29.476 7.86061 30.3597 8.31636 30.9404 9.17724L33.0359 7.20229C32.2279 6.08822 30.7131 4.99946 28.2137 4.99946C24.4519 4.99946 21.7505 7.65805 21.7505 11.4054C21.7505 15.178 24.4519 17.8366 28.2137 17.8366Z" fill="white"/>
<path d="M46.5941 17.5328V8.84808C46.5941 6.46801 45.3065 4.99946 42.6303 4.99946C40.6358 4.99946 39.121 5.96162 38.3383 6.89845V0.644444H35.1319V17.5328H38.3383V9.30384C38.8937 8.56956 39.8784 7.86061 41.1155 7.86061C42.5041 7.86061 43.3877 8.39232 43.3877 10.0888V17.5328H46.5941Z" fill="white"/>
<path d="M58.9923 17.5328C62.1987 17.5328 63.8902 15.5072 63.8902 12.9752C63.8902 10.8484 62.4511 9.10128 60.6586 8.82276C62.2491 8.4936 63.562 7.07569 63.562 4.94882C63.562 2.69535 61.9209 0.644444 58.7146 0.644444H49.8529V17.5328H58.9923ZM57.9319 7.40485H53.438V3.73347H57.9319C59.1438 3.73347 59.9012 4.51838 59.9012 5.58182C59.9012 6.64525 59.1438 7.40485 57.9319 7.40485ZM58.0582 14.4185H53.438V10.4939H58.0582C59.472 10.4939 60.2294 11.4054 60.2294 12.4688C60.2294 13.6842 59.4215 14.4185 58.0582 14.4185Z" fill="white"/>
<path d="M69.7244 17.5328V9.45576C70.2546 8.67084 71.6684 8.06317 72.7288 8.06317C73.0823 8.06317 73.3852 8.08849 73.6124 8.13913V4.99946C72.0976 4.99946 70.5828 5.88566 69.7244 6.97441V5.3033H66.5181V17.5328H69.7244Z" fill="white"/>
<path d="M86.1438 17.5328V9.633C86.1438 6.11354 83.5939 4.99946 80.8167 4.99946C78.8979 4.99946 76.9792 5.60714 75.4896 6.92377L76.7015 9.07596C77.7366 8.11381 78.9484 7.63273 80.2613 7.63273C81.8771 7.63273 82.9375 8.44296 82.9375 9.68364V11.3294C82.1296 10.3673 80.6905 9.83556 79.0747 9.83556C77.1307 9.83556 74.8332 10.9243 74.8332 13.7855C74.8332 16.52 77.1307 17.8366 79.0747 17.8366C80.6652 17.8366 82.1043 17.2543 82.9375 16.2668V17.5328H86.1438ZM80.3623 15.6591C79.0999 15.6591 78.0648 15.0008 78.0648 13.8614C78.0648 12.6714 79.0999 12.0131 80.3623 12.0131C81.3974 12.0131 82.4073 12.3675 82.9375 13.0765V14.5957C82.4073 15.3046 81.3974 15.6591 80.3623 15.6591Z" fill="white"/>
<path d="M90.9147 3.98667C91.9751 3.98667 92.8335 3.12579 92.8335 2.06236C92.8335 0.998922 91.9751 0.163366 90.9147 0.163366C89.8796 0.163366 88.9959 0.998922 88.9959 2.06236C88.9959 3.12579 89.8796 3.98667 90.9147 3.98667ZM92.5305 17.5328V5.3033H89.3242V17.5328H92.5305Z" fill="white"/>
<path d="M107.147 17.5328V8.89872C107.147 6.51865 105.859 4.99946 103.183 4.99946C101.188 4.99946 99.6989 5.96162 98.9162 6.89845V5.3033H95.7099V17.5328H98.9162V9.30384C99.4464 8.56956 100.431 7.86061 101.693 7.86061C103.057 7.86061 103.94 8.44297 103.94 10.1394V17.5328H107.147Z" fill="white"/>
<path d="M114.723 17.8366C118.106 17.8366 120 16.1402 120 13.9121C120 8.97468 112.779 10.4939 112.779 8.67084C112.779 7.98721 113.537 7.45549 114.698 7.45549C116.188 7.45549 117.576 8.08849 118.308 8.8734L119.596 6.67057C118.384 5.70842 116.743 4.99946 114.673 4.99946C111.467 4.99946 109.674 6.79717 109.674 8.84808C109.674 13.6589 116.92 12.0131 116.92 14.0387C116.92 14.7983 116.263 15.3553 114.875 15.3553C113.36 15.3553 111.542 14.5197 110.659 13.6842L109.27 15.9376C110.558 17.1277 112.603 17.8366 114.723 17.8366Z" fill="white"/>
</svg>
