<svg width="20" height="20" viewBox="0 0 20 20" fill="none" xmlns="http://www.w3.org/2000/svg">
<path d="M12.6265 4.36455L15.6355 7.37347M13.8473 3.1267C14.046 2.92801 14.2819 2.7704 14.5415 2.66287C14.8011 2.55534 15.0793 2.5 15.3603 2.5C15.6413 2.5 15.9195 2.55534 16.1791 2.66287C16.4387 2.7704 16.6746 2.92801 16.8733 3.1267C17.072 3.32538 17.2296 3.56126 17.3371 3.82086C17.4447 4.08045 17.5 4.35869 17.5 4.63968C17.5 4.92066 17.4447 5.1989 17.3371 5.45849C17.2296 5.71809 17.072 5.95397 16.8733 6.15266L6.66069 16.3653L2.5 17.5L3.63473 13.3393L13.8473 3.1267Z" stroke="#313131" stroke-width="1.5" stroke-linecap="round" stroke-linejoin="round"/>
</svg>
