<svg width="17" height="16" viewBox="0 0 17 16" fill="none" xmlns="http://www.w3.org/2000/svg">
<path d="M5.65556 13.6889V2.31109M5.65556 13.6889C5.65556 14.0816 5.33719 14.4 4.94445 14.4H2.81112C2.41838 14.4 2.10001 14.0816 2.10001 13.6889V2.31109C2.10001 1.91835 2.41838 1.59998 2.81112 1.59998H4.94445C5.33719 1.59998 5.65556 1.91835 5.65556 2.31109M5.65556 13.6889H14.1889C14.5816 13.6889 14.9 13.3705 14.9 12.9778V3.0222C14.9 2.62946 14.5816 2.31109 14.1889 2.31109H5.65556M8.50001 6.57775H12.0556C12.4483 6.57775 12.7667 6.25938 12.7667 5.86664V5.15553C12.7667 4.7628 12.4483 4.44442 12.0556 4.44442H8.50001C8.10727 4.44442 7.78889 4.7628 7.78889 5.15553V5.86664C7.78889 6.25938 8.10727 6.57775 8.50001 6.57775Z" stroke="#87898F" stroke-width="1.5"/>
</svg>
