<svg width="31" height="18" viewBox="0 0 31 18" fill="none" xmlns="http://www.w3.org/2000/svg">
<path d="M13.6334 17.4442L9.84632 11.0129C11.6641 10.5825 13.5324 8.98734 13.5324 5.9996C13.5324 2.85993 11.3864 0.555824 7.87705 0.555824H0V17.4442H3.58507V11.4434H6.21075L9.5181 17.4442H13.6334ZM7.34687 8.27839H3.58507V3.72081H7.34687C8.78594 3.72081 9.87156 4.58168 9.87156 5.9996C9.87156 7.41751 8.78594 8.27839 7.34687 8.27839Z" fill="white"/>
<path d="M25.1394 17.4442C28.3458 17.4442 30.0373 15.4186 30.0373 12.8866C30.0373 10.7597 28.5982 9.01266 26.8057 8.73414C28.3963 8.40498 29.7091 6.98707 29.7091 4.8602C29.7091 2.60673 28.0681 0.555824 24.8617 0.555824H16V17.4442H25.1394ZM24.079 7.31623H19.5851V3.64485H24.079C25.2909 3.64485 26.0483 4.42977 26.0483 5.4932C26.0483 6.55663 25.2909 7.31623 24.079 7.31623ZM24.2053 14.3298H19.5851V10.4053H24.2053C25.6191 10.4053 26.3765 11.3168 26.3765 12.3802C26.3765 13.5956 25.5686 14.3298 24.2053 14.3298Z" fill="white"/>
</svg>
