<svg width="17" height="16" viewBox="0 0 17 16" fill="none" xmlns="http://www.w3.org/2000/svg">
<path d="M15.1666 11.28V13.28C15.1674 13.4657 15.1294 13.6495 15.055 13.8196C14.9806 13.9897 14.8715 14.1424 14.7347 14.2679C14.5979 14.3934 14.4364 14.489 14.2605 14.5485C14.0846 14.608 13.8982 14.6301 13.7133 14.6133C11.6619 14.3904 9.69131 13.6894 7.95998 12.5667C6.34919 11.5431 4.98353 10.1775 3.95998 8.56668C2.83329 6.82748 2.13214 4.84734 1.91331 2.78668C1.89665 2.60233 1.91856 2.41652 1.97764 2.2411C2.03673 2.06567 2.13169 1.90447 2.25649 1.76776C2.38128 1.63105 2.53318 1.52182 2.7025 1.44703C2.87183 1.37224 3.05487 1.33352 3.23998 1.33335H5.23998C5.56351 1.33016 5.87717 1.44473 6.12248 1.6557C6.3678 1.86667 6.52803 2.15964 6.57331 2.48001C6.65772 3.12006 6.81428 3.7485 7.03998 4.35335C7.12967 4.59196 7.14908 4.85129 7.09591 5.1006C7.04274 5.34991 6.91922 5.57875 6.73998 5.76001L5.89331 6.60668C6.84235 8.27571 8.22428 9.65764 9.89331 10.6067L10.74 9.76001C10.9212 9.58077 11.1501 9.45725 11.3994 9.40408C11.6487 9.35091 11.908 9.37032 12.1466 9.46001C12.7515 9.68571 13.3799 9.84227 14.02 9.92668C14.3438 9.97237 14.6396 10.1355 14.851 10.385C15.0624 10.6345 15.1748 10.9531 15.1666 11.28Z" stroke="#87898F" stroke-width="1.5" stroke-linecap="round" stroke-linejoin="round"/>
</svg>
